<?xml version="1.0" encoding="UTF-8"?>
<svg version="1.1" xmlns="http://www.w3.org/2000/svg" width="130" height="169">
<path d="M0 0 C5.68925206 1.75711458 11.09871795 4.09046247 16.5625 6.4375 C17.49513672 6.83259766 18.42777344 7.22769531 19.38867188 7.63476562 C23.01315172 9.18737602 26.49571378 10.69688087 29.87890625 12.73046875 C32.14024605 14.08394101 33.77158366 14.56484571 36.375 14.875 C37.08398438 14.97554687 37.79296875 15.07609375 38.5234375 15.1796875 C42.04687747 14.92404359 44.8540358 13.49330142 48 12 C49.93078585 11.11153629 51.86179572 10.22355932 53.79296875 9.3359375 C57.0166522 7.84470978 60.23909766 6.35097243 63.45898438 4.8515625 C64.49732422 4.37203125 65.53566406 3.8925 66.60546875 3.3984375 C67.54543701 2.96192871 68.48540527 2.52541992 69.45385742 2.07568359 C71.65481169 1.1458337 73.645574 0.39245986 76 0 C77 1 77 1 77.09765625 4.16015625 C77.08605469 5.44792969 77.07445313 6.73570313 77.0625 8.0625 C77.05347656 9.35285156 77.04445313 10.64320312 77.03515625 11.97265625 C77.02355469 12.97167969 77.01195313 13.97070312 77 15 C77.66 15 78.32 15 79 15 C85.734648 27.88083161 88.16893067 40.83436647 84 55 C79.35005477 67.06726678 70.10344114 76.14291471 61.43652344 85.44580078 C59.9880063 87.01297619 58.55813231 88.59531075 57.1328125 90.18359375 C43.17136245 105.7198242 43.17136245 105.7198242 37.125 106.5 C34 106 34 106 32 105 C32 104.34 32 103.68 32 103 C31.43796875 102.7628125 30.8759375 102.525625 30.296875 102.28125 C27.48105958 100.71052303 25.52044584 98.78528536 23.25 96.5 C22.45078125 95.7059375 21.6515625 94.911875 20.828125 94.09375 C19 92 19 92 19 90 C18.34 90 17.68 90 17 90 C17 89.34 17 88.68 17 88 C16.34 88 15.68 88 15 88 C13.4921875 86.5390625 13.4921875 86.5390625 11.875 84.625 C11.33617188 83.99851562 10.79734375 83.37203125 10.2421875 82.7265625 C9 81 9 81 9 79 C8.34 79 7.68 79 7 79 C-3.56589659 67.88467678 -10.69696722 56.0322539 -11.375 40.4375 C-11.00694925 31.70029524 -8.41480057 19.41480057 -2 13 C-1.79111292 11.00396794 -1.63224523 9.00257059 -1.5 7 C-1.11111111 1.11111111 -1.11111111 1.11111111 0 0 Z M29 31 C24.7746126 35.55897062 23.62860362 38.53003497 23.7265625 44.61328125 C24.19414324 48.69459313 25.45381579 50.73566126 28 54 C33.73256633 57.66884245 38.44358671 57.09493421 45 56 C45 55.34 45 54.68 45 54 C45.8971875 53.6596875 45.8971875 53.6596875 46.8125 53.3125 C49.76738497 51.53956902 50.64499863 50.18425322 52 47 C52.72908326 42.2389985 52.48402232 38.93347162 50.25 34.625 C46.49347247 30.24238455 44.05362085 28.47057505 38.08984375 27.9375 C34.52196708 28.04420285 32.05602345 29.23690955 29 31 Z " fill="#339857" transform="translate(27,56)"/>
<path d="M0 0 C1.69092773 0.83930054 1.69092773 0.83930054 3.41601562 1.69555664 C4.03671936 2.00032928 4.6574231 2.30510193 5.29693604 2.61911011 C6.62304535 3.27098424 7.9474924 3.92624919 9.27038574 4.58462524 C12.73312959 6.30780845 16.20765223 8.00690563 19.68164062 9.70727539 C20.37356506 10.04662613 21.0654895 10.38597687 21.77838135 10.73561096 C28.88563397 14.21046695 36.07990476 17.48344003 43.30859375 20.69726562 C44.13294922 21.06537354 44.95730469 21.43348145 45.80664062 21.81274414 C46.86963379 22.28224487 46.86963379 22.28224487 47.95410156 22.76123047 C49.82226563 23.66821289 49.82226563 23.66821289 52.82226562 25.66821289 C53.38476562 28.04321289 53.38476562 28.04321289 52.82226562 30.66821289 C47.84929265 34.66821289 47.84929265 34.66821289 44.82226562 34.66821289 C44.82226562 40.93821289 44.82226562 47.20821289 44.82226562 53.66821289 C45.48226562 53.66821289 46.14226562 53.66821289 46.82226562 53.66821289 C47.94726562 59.29321289 47.94726562 59.29321289 46.82226562 62.66821289 C43.57399888 64.83372405 42.59132405 65.21978242 38.82226562 64.66821289 C36.44726562 63.10571289 36.44726562 63.10571289 34.82226562 60.66821289 C35.03655134 54.45392718 35.03655134 54.45392718 37.82226562 51.66821289 C38.28623256 48.77597786 38.28623256 48.77597786 38.44726562 45.54321289 C38.52203125 44.44750977 38.59679687 43.35180664 38.67382812 42.22290039 C38.74730469 40.95833008 38.74730469 40.95833008 38.82226562 39.66821289 C32.32940453 42.06982763 25.91283137 44.55788891 19.63476562 47.48071289 C18.57515625 47.9718457 17.51554687 48.46297852 16.42382812 48.96899414 C14.48559477 49.88345348 12.54930114 50.80238907 10.62597656 51.74780273 C8.2632735 52.908472 5.88760682 54.03893959 3.50976562 55.16821289 C2.76895752 55.54308838 2.02814941 55.91796387 1.26489258 56.30419922 C-4.31643255 58.91523221 -7.36781208 58.71645668 -13.17773438 56.66821289 C-13.17773438 56.00821289 -13.17773438 55.34821289 -13.17773438 54.66821289 C-14.14066406 54.53286133 -14.14066406 54.53286133 -15.12304688 54.39477539 C-19.30787885 53.39940615 -23.10719978 51.73731177 -27.05273438 50.04321289 C-27.89408936 49.68493408 -28.73544434 49.32665527 -29.60229492 48.95751953 C-37.21132006 45.69568566 -44.71566715 42.25324954 -52.17773438 38.66821289 C-53.50053423 38.05077506 -54.82345274 37.43359141 -56.14648438 36.81665039 C-57.42820558 36.20565872 -58.70947196 35.59371183 -59.99023438 34.98071289 C-61.70146484 34.17053711 -61.70146484 34.17053711 -63.44726562 33.34399414 C-66.23599629 31.63245558 -67.1365606 30.71215406 -68.17773438 27.66821289 C-65.45600531 24.719087 -63.01505791 22.8560508 -59.38867188 21.15258789 C-57.98959595 20.48888184 -57.98959595 20.48888184 -56.56225586 19.81176758 C-55.07254272 19.12195801 -55.07254272 19.12195801 -53.55273438 18.41821289 C-52.52672119 17.93513672 -51.50070801 17.45206055 -50.44360352 16.9543457 C-43.48081272 13.69160172 -36.47576946 10.52812452 -29.42236328 7.46630859 C-25.93993864 5.94448664 -22.52655903 4.36285898 -19.16601562 2.58618164 C-18.5331665 2.25328125 -17.90031738 1.92038086 -17.24829102 1.57739258 C-15.55509151 0.6736868 -13.87368393 -0.25201785 -12.19335938 -1.17944336 C-7.62556419 -2.92490913 -4.43427941 -1.85840459 0 0 Z " fill="#17364E" transform="translate(72.177734375,11.331787109375)"/>
<path d="M0 0 C6.07510661 0.40073263 11.08374014 2.45935703 16.625 4.875 C17.45773438 5.22691406 18.29046875 5.57882813 19.1484375 5.94140625 C22.50486507 7.37911169 25.68512333 8.80932468 28.8125 10.703125 C31.10728685 12.06360578 32.74137955 12.56124738 35.375 12.875 C36.08398438 12.97554687 36.79296875 13.07609375 37.5234375 13.1796875 C41.04321404 12.92430939 43.86163601 11.50019083 47 10 C49.71365993 8.72606993 52.4276297 7.4528229 55.14257812 6.18164062 C57.09691622 5.26525868 59.04744009 4.34069992 60.99414062 3.40820312 C61.93580078 2.97056641 62.87746094 2.53292969 63.84765625 2.08203125 C65.1162146 1.48225464 65.1162146 1.48225464 66.41040039 0.87036133 C69 0 69 0 75 0 C75 3.96 75 7.92 75 12 C70.08927844 14.64649665 65.16197428 17.25661117 60.21386719 19.83251953 C58.30713704 20.83803161 56.42089863 21.88222932 54.5390625 22.93359375 C46.32701372 27.24647076 38.11566874 28.97113084 29 27 C24.02690988 25.30114778 19.51100779 22.73799626 14.97558594 20.11669922 C11.71825364 18.27549335 8.35797191 16.64796543 5 15 C3 14 1 13 -1 12 C-1.02687279 10.18757948 -1.04633715 8.37504767 -1.0625 6.5625 C-1.07410156 5.55316406 -1.08570312 4.54382812 -1.09765625 3.50390625 C-1 1 -1 1 0 0 Z " fill="#17364D" transform="translate(28,58)"/>
<path d="M0 0 C4.46443697 0.33693864 7.81218056 0.68466779 11 4 C11 4.99 11 5.98 11 7 C11.66 7.33 12.32 7.66 13 8 C12.34 8 11.68 8 11 8 C11.66 9.65 12.32 11.3 13 13 C13.33 12.34 13.66 11.68 14 11 C16.86724686 11.57344937 17.8614515 11.8614515 20 14 C18.625 15.5 18.625 15.5 17 17 C16.34 17 15.68 17 15 17 C15 17.66 15 18.32 15 19 C9.31497465 17.35433477 4.23318364 14.70967216 -1 12 C-1.02687279 10.18757948 -1.04633715 8.37504767 -1.0625 6.5625 C-1.07410156 5.55316406 -1.08570312 4.54382812 -1.09765625 3.50390625 C-1 1 -1 1 0 0 Z " fill="#0F3448" transform="translate(28,58)"/>
<path d="M0 0 C0.33 0 0.66 0 1 0 C1 6.27 1 12.54 1 19 C1.66 19 2.32 19 3 19 C4.125 24.625 4.125 24.625 3 28 C-0.24826674 30.16551116 -1.23094157 30.55156953 -5 30 C-7.375 28.4375 -7.375 28.4375 -9 26 C-8.9375 22.375 -8.9375 22.375 -8 19 C-7.01 18.34 -6.02 17.68 -5 17 C-4.67 17.99 -4.34 18.98 -4 20 C-4 14.39 -4 8.78 -4 3 C-3.01 3 -2.02 3 -1 3 C-0.67 2.01 -0.34 1.02 0 0 Z " fill="#162F46" transform="translate(116,46)"/>
<path d="M0 0 C0.99 0.33 1.98 0.66 3 1 C3 5.62 3 10.24 3 15 C3.66 15 4.32 15 5 15 C4.67 15.66 4.34 16.32 4 17 C3.16984375 17.11988281 2.3396875 17.23976563 1.484375 17.36328125 C-3.07318112 18.19610821 -6.67142919 20.05027293 -10.75 22.1875 C-11.51699219 22.56197266 -12.28398438 22.93644531 -13.07421875 23.32226562 C-16.92221161 25.3274148 -18.65424741 26.24700789 -20.515625 30.30078125 C-20.75539063 31.63689453 -20.75539063 31.63689453 -21 33 C-21.66 33 -22.32 33 -23 33 C-23.33 33.99 -23.66 34.98 -24 36 C-24.61875 35.21625 -25.2375 34.4325 -25.875 33.625 C-27.89858661 31.03162353 -27.89858661 31.03162353 -30 29 C-29.48727539 28.75878418 -28.97455078 28.51756836 -28.44628906 28.26904297 C-18.57482758 23.62065884 -8.72483769 18.94976768 1 14 C1.08086147 12.20906809 1.13912702 10.41710372 1.1875 8.625 C1.22230469 7.62726562 1.25710937 6.62953125 1.29296875 5.6015625 C1.19628906 4.74304687 1.09960938 3.88453125 1 3 C0.01 2.34 -0.98 1.68 -2 1 C-1.34 0.67 -0.68 0.34 0 0 Z " fill="#3A8C61" transform="translate(101,56)"/>
<path d="M0 0 C4.75 1.875 4.75 1.875 7 3 C7.375 5.25 7.375 5.25 7 8 C4.4375 10.375 4.4375 10.375 1 12 C-2.875 11.75 -2.875 11.75 -6 11 C-5.67 9.68 -5.34 8.36 -5 7 C-4.34 7 -3.68 7 -3 7 C-3 6.01 -3 5.02 -3 4 C-1.68 3.67 -0.36 3.34 1 3 C0.67 2.01 0.34 1.02 0 0 Z M-8 11 C-6 12 -6 12 -6 12 Z " fill="#3A4F63" transform="translate(118,34)"/>
<path d="M0 0 C1.67551365 2.96352237 2.30748632 5.31027723 2.5625 8.6953125 C2.63726563 9.57574219 2.71203125 10.45617187 2.7890625 11.36328125 C2.93028076 13.21219437 3.07090081 15.06115327 3.2109375 16.91015625 C3.28570313 17.78800781 3.36046875 18.66585937 3.4375 19.5703125 C3.49808594 20.37227051 3.55867188 21.17422852 3.62109375 22.00048828 C3.84793047 24.22332339 3.84793047 24.22332339 6 26 C6.56520003 28.65537372 6.73788198 31.29144713 7 34 C1.68874061 29.46266698 -0.413101 20.74933854 -1 14 C-1.1885169 9.20995701 -1.20643186 4.67492347 0 0 Z " fill="#629D77" transform="translate(17,87)"/>
<path d="M0 0 C1.32 0.66 2.64 1.32 4 2 C3.67 7.94 3.34 13.88 3 20 C2.67 20 2.34 20 2 20 C1.67 15.05 1.34 10.1 1 5 C-0.52106634 8.04213267 -0.37429338 11.28047572 -0.5625 14.625 C-0.60568359 15.33140625 -0.64886719 16.0378125 -0.69335938 16.765625 C-0.79944751 18.51018537 -0.90022889 20.25506697 -1 22 C-1.66 21.67 -2.32 21.34 -3 21 C-2.67 16.05 -2.34 11.1 -2 6 C-3.65 6 -5.3 6 -7 6 C-7 5.34 -7 4.68 -7 4 C-6.030625 3.71125 -5.06125 3.4225 -4.0625 3.125 C-0.89335797 2.35785318 -0.89335797 2.35785318 0 0 Z " fill="#0F2031" transform="translate(113,44)"/>
<path d="M0 0 C9.59453303 2.89066059 9.59453303 2.89066059 13 6 C11.66666667 7.33333333 10.33333333 8.66666667 9 10 C8.01 9.67 7.02 9.34 6 9 C5.67 9.99 5.34 10.98 5 12 C2.84978377 8.77467566 2.62562713 6.75376279 2 3 C1.34 2.01 0.68 1.02 0 0 Z " fill="#2B4458" transform="translate(36,60)"/>
<path d="M0 0 C2.33944736 0.28730055 4.6739143 0.61936779 7 1 C6.67 3.31 6.34 5.62 6 8 C5.21625 7.95875 4.4325 7.9175 3.625 7.875 C0.83883881 7.71271266 0.83883881 7.71271266 -1 10 C-1.02689216 8.52093108 -1.04634621 7.04172517 -1.0625 5.5625 C-1.07410156 4.73878906 -1.08570312 3.91507813 -1.09765625 3.06640625 C-1 1 -1 1 0 0 Z " fill="#16314A" transform="translate(28,58)"/>
<path d="M0 0 C0.99 0.66 1.98 1.32 3 2 C0.27655418 3.48988243 -2.45465614 4.96493737 -5.1875 6.4375 C-5.95642578 6.85837891 -6.72535156 7.27925781 -7.51757812 7.71289062 C-11.31498161 9.75012425 -14.64595236 11.52009495 -19 12 C-16.38199785 8.07299677 -13.34673937 5.82282619 -9 4 C-8.01 4 -7.02 4 -6 4 C-6 3.34 -6 2.68 -6 2 C-4.02 2 -2.04 2 0 2 C0 1.34 0 0.68 0 0 Z " fill="#083739" transform="translate(96,70)"/>
<path d="M0 0 C0.33 0 0.66 0 1 0 C1 6.27 1 12.54 1 19 C1.66 19 2.32 19 3 19 C4.125 24.625 4.125 24.625 3 28 C2.01 28.33 1.02 28.66 0 29 C-0.33 28.34 -0.66 27.68 -1 27 C-0.34 26.67 0.32 26.34 1 26 C0.66226563 24.8759375 0.32453125 23.751875 -0.0234375 22.59375 C-1.22491147 17.78785414 -1.0241977 13.40214774 -0.625 8.5 C-0.56828125 7.67757812 -0.5115625 6.85515625 -0.453125 6.0078125 C-0.31335136 4.00439034 -0.15828133 2.00204497 0 0 Z " fill="#616F7A" transform="translate(116,46)"/>
<path d="M0 0 C1.32 0.33 2.64 0.66 4 1 C4 1.66 4 2.32 4 3 C4.66 3 5.32 3 6 3 C6 2.34 6 1.68 6 1 C6.66 1 7.32 1 8 1 C8 1.99 8 2.98 8 4 C7.34 4 6.68 4 6 4 C6 4.66 6 5.32 6 6 C6.66 6 7.32 6 8 6 C8 6.66 8 7.32 8 8 C3.76570244 6.68938409 -0.07407404 5.05643741 -4 3 C-4 2.34 -4 1.68 -4 1 C-1.525 1.495 -1.525 1.495 1 2 C0.67 1.34 0.34 0.68 0 0 Z " fill="#09333C" transform="translate(31,67)"/>
<path d="M0 0 C0.66 0 1.32 0 2 0 C2 0.66 2 1.32 2 2 C2.66 2 3.32 2 4 2 C4 2.99 4 3.98 4 5 C4.66 5.66 5.32 6.32 6 7 C2.37 7 -1.26 7 -5 7 C-5.33 5.68 -5.66 4.36 -6 3 C-5.38125 2.87625 -4.7625 2.7525 -4.125 2.625 C-1.80879168 2.12802644 -1.80879168 2.12802644 0 0 Z " fill="#354C5E" transform="translate(65,78)"/>
<path d="M0 0 C0.99 0.33 1.98 0.66 3 1 C2.48050781 1.50789062 1.96101563 2.01578125 1.42578125 2.5390625 C-2.6224371 6.53490094 -6.44650891 10.55813614 -10 15 C-10.33 14.01 -10.66 13.02 -11 12 C-10.34 12 -9.68 12 -9 12 C-9 11.01 -9 10.02 -9 9 C-8.34 9 -7.68 9 -7 9 C-7 7.35 -7 5.7 -7 4 C-5.68 4.33 -4.36 4.66 -3 5 C-3 4.34 -3 3.68 -3 3 C-2.34 3 -1.68 3 -1 3 C-0.67 2.01 -0.34 1.02 0 0 Z " fill="#65A179" transform="translate(90,136)"/>
<path d="M0 0 C1.43861294 0.08746284 2.87597508 0.19565348 4.3125 0.3125 C5.11300781 0.37050781 5.91351563 0.42851563 6.73828125 0.48828125 C9.39937691 1.09035989 10.15565927 2.07299974 12 4 C12.99 4 13.98 4 15 4 C15 4.66 15 5.32 15 6 C15.99 6.33 16.98 6.66 18 7 C14.47678432 8.21421557 13.15932272 8.06854799 9.66796875 6.56640625 C8.49959859 5.91291108 7.33949378 5.24444949 6.1875 4.5625 C5.59001953 4.22412109 4.99253906 3.88574219 4.37695312 3.53710938 C2.91061178 2.70422749 1.45425244 1.85381439 0 1 C0 0.67 0 0.34 0 0 Z " fill="#0A3637" transform="translate(44,77)"/>
<path d="M0 0 C4.75 1.875 4.75 1.875 7 3 C7 4.65 7 6.3 7 8 C5.68 6.68 4.36 5.36 3 4 C2.34 5.32 1.68 6.64 1 8 C-0.32 8 -1.64 8 -3 8 C-3 6.68 -3 5.36 -3 4 C-1.68 3.67 -0.36 3.34 1 3 C0.67 2.01 0.34 1.02 0 0 Z " fill="#103551" transform="translate(118,34)"/>
<path d="M0 0 C1.21097999 3.63293998 0.67110261 4.53992407 -0.75 8 C-1.09546875 8.86625 -1.4409375 9.7325 -1.796875 10.625 C-2.95948674 12.92002578 -4.07731249 14.32041091 -6 16 C-6 13.36 -6 10.72 -6 8 C-5.01 7.67 -4.02 7.34 -3 7 C-3 6.34 -3 5.68 -3 5 C-2.34 5 -1.68 5 -1 5 C-0.67 3.35 -0.34 1.7 0 0 Z " fill="#65A778" transform="translate(111,105)"/>
<path d="M0 0 C0.33 0.99 0.66 1.98 1 3 C0.01 3.33 -0.98 3.66 -2 4 C-2 5.32 -2 6.64 -2 8 C-4.02045442 7.39816251 -6.02111039 6.72693904 -8 6 C-8.33 5.34 -8.66 4.68 -9 4 C-8.01 3.67 -7.02 3.34 -6 3 C-5.34 2.34 -4.68 1.68 -4 1 C-1.875 0.375 -1.875 0.375 0 0 Z " fill="#304B5D" transform="translate(15,38)"/>
<path d="M0 0 C0.33 0.66 0.66 1.32 1 2 C1.66 2.33 2.32 2.66 3 3 C1.02 5.64 -0.96 8.28 -3 11 C-3.66 10.34 -4.32 9.68 -5 9 C-4.875 6.5 -4.875 6.5 -4 4 C-1.9375 2.6875 -1.9375 2.6875 0 2 C0 1.34 0 0.68 0 0 Z " fill="#539D6E" transform="translate(102,119)"/>
<path d="M0 0 C0.33 1.32 0.66 2.64 1 4 C0.34 4 -0.32 4 -1 4 C-1.33 4.99 -1.66 5.98 -2 7 C-2.61875 6.21625 -3.2375 5.4325 -3.875 4.625 C-5.89858661 2.03162353 -5.89858661 2.03162353 -8 0 C-5.13822943 -1.43088528 -3.06624227 -0.59991697 0 0 Z " fill="#4B9764" transform="translate(79,85)"/>
<path d="M0 0 C2.16022555 3.43094646 1.8128885 5.13877962 1 9 C1.66 9.66 2.32 10.32 3 11 C2.01 11.33 1.02 11.66 0 12 C-1.5625 10.9375 -1.5625 10.9375 -3 9 C-2.66666667 2.66666667 -2.66666667 2.66666667 0 0 Z " fill="#576271" transform="translate(110,63)"/>
<path d="M0 0 C7.75 0.75 7.75 0.75 10 3 C11.175625 3.309375 12.35125 3.61875 13.5625 3.9375 C14.696875 4.288125 15.83125 4.63875 17 5 C17.33 5.99 17.66 6.98 18 8 C11.79522136 6.06375702 5.89174281 3.74390859 0 1 C0 0.67 0 0.34 0 0 Z " fill="#717884" transform="translate(26,52)"/>
<path d="M0 0 C0.99 0.33 1.98 0.66 3 1 C3.125 7.75 3.125 7.75 2 10 C2 10.99 2 11.98 2 13 C1.01 13.33 0.02 13.66 -1 14 C-1.02685938 11.85423363 -1.04633088 9.70837355 -1.0625 7.5625 C-1.07410156 6.36753906 -1.08570312 5.17257813 -1.09765625 3.94140625 C-1 1 -1 1 0 0 Z " fill="#55996A" transform="translate(79,91)"/>
<path d="M0 0 C3.7910119 1.44950455 7.3874638 3.15172566 11 5 C10.01 5.495 10.01 5.495 9 6 C9 6.66 9 7.32 9 8 C8.01 8 7.02 8 6 8 C6 7.01 6 6.02 6 5 C4.68 4.67 3.36 4.34 2 4 C2 3.34 2 2.68 2 2 C1.34 2 0.68 2 0 2 C0 1.34 0 0.68 0 0 Z " fill="#368E5E" transform="translate(46,79)"/>
<path d="M0 0 C1.32 0 2.64 0 4 0 C4 3.63 4 7.26 4 11 C3.67 11 3.34 11 3 11 C2.67 9.02 2.34 7.04 2 5 C0.68 5 -0.64 5 -2 5 C-1.34 3.35 -0.68 1.7 0 0 Z " fill="#13253C" transform="translate(99,58)"/>
<path d="M0 0 C0.66 0 1.32 0 2 0 C2.33 1.32 2.66 2.64 3 4 C2.01 4.495 2.01 4.495 1 5 C1 5.66 1 6.32 1 7 C-0.65 7 -2.3 7 -4 7 C-4.33 5.02 -4.66 3.04 -5 1 C-3.68 1.33 -2.36 1.66 -1 2 C-0.67 1.34 -0.34 0.68 0 0 Z " fill="#2D4152" transform="translate(115,69)"/>
<path d="M0 0 C0.66 0.99 1.32 1.98 2 3 C2.66 2.34 3.32 1.68 4 1 C4.66 2.65 5.32 4.3 6 6 C5.195625 6.12375 4.39125 6.2475 3.5625 6.375 C2.2940625 6.684375 2.2940625 6.684375 1 7 C0.67 7.66 0.34 8.32 0 9 C-0.66 8.67 -1.32 8.34 -2 8 C-1.125 1.125 -1.125 1.125 0 0 Z " fill="#49A568" transform="translate(48,102)"/>
<path d="M0 0 C-0.309375 0.804375 -0.61875 1.60875 -0.9375 2.4375 C-2.18565517 6.62249087 -2.6337696 10.66306101 -3 15 C-3.33 15 -3.66 15 -4 15 C-4 11.37 -4 7.74 -4 4 C-4.66 3.67 -5.32 3.34 -6 3 C-5.34 3 -4.68 3 -4 3 C-4 2.34 -4 1.68 -4 1 C-2 0 -2 0 0 0 Z " fill="#64A178" transform="translate(54,88)"/>
<path d="M0 0 C0.66 0 1.32 0 2 0 C2 0.99 2 1.98 2 3 C2.99 3 3.98 3 5 3 C5 2.34 5 1.68 5 1 C6.32 1.33 7.64 1.66 9 2 C5.33708062 4.47785723 2.3890815 5.48964169 -2 6 C-1.49396008 3.83125748 -1.00016187 2.00032373 0 0 Z " fill="#499C64" transform="translate(50,84)"/>
<path d="M0 0 C0.33 0.66 0.66 1.32 1 2 C1.66 2 2.32 2 3 2 C2.34 3.65 1.68 5.3 1 7 C-0.32 6.34 -1.64 5.68 -3 5 C-1.125 1.125 -1.125 1.125 0 0 Z " fill="#0D334D" transform="translate(113,65)"/>
<path d="M0 0 C0.99 0.33 1.98 0.66 3 1 C3 5.62 3 10.24 3 15 C3.66 15 4.32 15 5 15 C4.67 15.66 4.34 16.32 4 17 C3.34 16.67 2.68 16.34 2 16 C1.64175227 12.66693571 1.55539231 9.3536255 1.44140625 6.00390625 C1.22291016 4.51697266 1.22291016 4.51697266 1 3 C0.01 2.34 -0.98 1.68 -2 1 C-1.34 0.67 -0.68 0.34 0 0 Z " fill="#94A1A1" transform="translate(101,56)"/>
<path d="M0 0 C0.99 0.33 1.98 0.66 3 1 C3 1.66 3 2.32 3 3 C4.32 3.33 5.64 3.66 7 4 C7 5.65 7 7.3 7 9 C1.21538462 4.56923077 1.21538462 4.56923077 0.125 1.6875 C0.08375 1.130625 0.0425 0.57375 0 0 Z " fill="#59996B" transform="translate(47,146)"/>
<path d="M0 0 C0.33 0.66 0.66 1.32 1 2 C1.33 1.34 1.66 0.68 2 0 C3.32 0.33 4.64 0.66 6 1 C6 1.66 6 2.32 6 3 C4.35 3.66 2.7 4.32 1 5 C0.67 4.67 0.34 4.34 0 4 C-0.66 4.66 -1.32 5.32 -2 6 C-1.125 1.125 -1.125 1.125 0 0 Z " fill="#122E41" transform="translate(113,34)"/>
<path d="M0 0 C0.66 0.33 1.32 0.66 2 1 C1.25 2.9375 1.25 2.9375 0 5 C-2.125 5.75 -2.125 5.75 -4 6 C-4.66 5.01 -5.32 4.02 -6 3 C-4.03533587 1.93224776 -2.03144641 0.93446535 0 0 Z " fill="#404E60" transform="translate(97,58)"/>
<path d="M0 0 C2.31 0.33 4.62 0.66 7 1 C6.67 2.32 6.34 3.64 6 5 C4.02 4.01 2.04 3.02 0 2 C0 1.34 0 0.68 0 0 Z " fill="#243C52" transform="translate(28,58)"/>
<path d="M0 0 C-0.33 1.32 -0.66 2.64 -1 4 C-1.66 4 -2.32 4 -3 4 C-3.33 4.99 -3.66 5.98 -4 7 C-4.66 6.67 -5.32 6.34 -6 6 C-3.84615385 0 -3.84615385 0 0 0 Z " fill="#4E5866" transform="translate(10,35)"/>
<path d="M0 0 C-0.99 0.495 -0.99 0.495 -2 1 C-2.33 1.99 -2.66 2.98 -3 4 C-4.32 3.67 -5.64 3.34 -7 3 C-7 2.01 -7 1.02 -7 0 C-4.3333581 -1.33332095 -2.83319697 -0.67102033 0 0 Z " fill="#2A3B51" transform="translate(17,34)"/>
<path d="M0 0 C1.32 0.66 2.64 1.32 4 2 C4 3.32 4 4.64 4 6 C2.68 6.33 1.36 6.66 0 7 C-1.04449911 3.86650268 -0.93423645 3.01031744 0 0 Z " fill="#162739" transform="translate(120,36)"/>
<path d="M0 0 C2.75 0.25 2.75 0.25 5 1 C4.401875 1.268125 3.80375 1.53625 3.1875 1.8125 C1.02775192 2.98493467 -0.35790256 4.19369282 -2 6 C-2.66 5.34 -3.32 4.68 -4 4 C-2.3125 1.9375 -2.3125 1.9375 0 0 Z " fill="#133048" transform="translate(10,37)"/>
<path d="M0 0 C0.33 0 0.66 0 1 0 C1 4.62 1 9.24 1 14 C-1.04379831 9.91240337 -1.18594005 9.01314435 -0.625 4.75 C-0.51414063 3.85796875 -0.40328125 2.9659375 -0.2890625 2.046875 C-0.19367188 1.37140625 -0.09828125 0.6959375 0 0 Z " fill="#87909A" transform="translate(129,88)"/>
<path d="M0 0 C1.65 1.65 3.3 3.3 5 5 C4.67 5.66 4.34 6.32 4 7 C2.68 6.34 1.36 5.68 0 5 C0 3.35 0 1.7 0 0 Z " fill="#57996C" transform="translate(104,72)"/>
<path d="M0 0 C1.8871875 0.061875 1.8871875 0.061875 3.8125 0.125 C0.30711443 2.08801592 -3.32101728 3.08402388 -7.1875 4.125 C-7.1875 3.465 -7.1875 2.805 -7.1875 2.125 C-4.09861478 0.06574319 -3.47814073 -0.1140374 0 0 Z " fill="#5B6578" transform="translate(107.1875,49.875)"/>
<path d="M0 0 C-0.33 1.65 -0.66 3.3 -1 5 C-1.99 5 -2.98 5 -4 5 C-4.33 3.68 -4.66 2.36 -5 1 C-2 0 -2 0 0 0 Z " fill="#4F9F69" transform="translate(96,130)"/>
<path d="M0 0 C1.32 0.66 2.64 1.32 4 2 C3.01 2.33 2.02 2.66 1 3 C0.67 6.3 0.34 9.6 0 13 C-0.33 13 -0.66 13 -1 13 C-1.02686553 11.02090602 -1.04633375 9.04171029 -1.0625 7.0625 C-1.07410156 5.96035156 -1.08570312 4.85820313 -1.09765625 3.72265625 C-1 1 -1 1 0 0 Z " fill="#79828B" transform="translate(27,56)"/>
<path d="M0 0 C2.31 0.66 4.62 1.32 7 2 C6.67 2.99 6.34 3.98 6 5 C4.125 4.75 4.125 4.75 2 4 C0.75 1.9375 0.75 1.9375 0 0 Z " fill="#374958" transform="translate(85,19)"/>
<path d="M0 0 C0.86625 0.556875 0.86625 0.556875 1.75 1.125 C-0.25 3.125 -0.25 3.125 -3.875 3.25 C-4.98875 3.20875 -6.1025 3.1675 -7.25 3.125 C-5.61609754 -0.14280491 -3.47460528 -1.35123539 0 0 Z " fill="#4A5C6C" transform="translate(52.25,15.875)"/>
<path d="M0 0 C1.125 1.6875 1.125 1.6875 2 4 C1.125 6.75 1.125 6.75 0 9 C-0.66 9 -1.32 9 -2 9 C-1.51421457 5.87709365 -1.0013988 3.00419641 0 0 Z " fill="#72AA7F" transform="translate(20,77)"/>
<path d="M0 0 C0.66 0 1.32 0 2 0 C2 1.32 2 2.64 2 4 C1.34 4 0.68 4 0 4 C0 4.66 0 5.32 0 6 C-0.99 6.33 -1.98 6.66 -3 7 C-1.125 1.125 -1.125 1.125 0 0 Z " fill="#76AD85" transform="translate(24,70)"/>
<path d="M0 0 C4.75 1.875 4.75 1.875 7 3 C7 4.65 7 6.3 7 8 C6.38125 7.34 5.7625 6.68 5.125 6 C3.24362573 3.7715451 3.24362573 3.7715451 1 4 C0.67 2.68 0.34 1.36 0 0 Z " fill="#6F7881" transform="translate(118,34)"/>
<path d="M0 0 C0.99 0.33 1.98 0.66 3 1 C1.35 2.65 -0.3 4.3 -2 6 C-2.66 5.67 -3.32 5.34 -4 5 C-3 2 -3 2 0 0 Z " fill="#76AF84" transform="translate(72,155)"/>
<path d="M0 0 C0.66 0.33 1.32 0.66 2 1 C0.3125 3.0625 0.3125 3.0625 -2 5 C-4.75 4.75 -4.75 4.75 -7 4 C-4.61426621 2.10786631 -2.92824652 0.97608217 0 0 Z " fill="#606A78" transform="translate(84,64)"/>
</svg>
